<svg width="20" height="20" viewBox="0 0 20 20" fill="none" xmlns="http://www.w3.org/2000/svg">
<g opacity="0.5" clip-path="url(#clip0_117_1128)">
<path d="M18.3333 3.55554L16.2777 1.49998C16.101 1.33153 15.8663 1.23755 15.6222 1.23755C15.378 1.23755 15.1433 1.33153 14.9666 1.49998L13.1388 3.33332H3.33328C3.03859 3.33332 2.75598 3.45038 2.5476 3.65875C2.33923 3.86713 2.22217 4.14974 2.22217 4.44443V16.6666C2.22217 16.9613 2.33923 17.2439 2.5476 17.4523C2.75598 17.6607 3.03859 17.7778 3.33328 17.7778H15.5555C15.8502 17.7778 16.1328 17.6607 16.3412 17.4523C16.5496 17.2439 16.6666 16.9613 16.6666 16.6666V6.53332L18.3333 4.86665C18.507 4.6927 18.6045 4.45692 18.6045 4.21109C18.6045 3.96527 18.507 3.72949 18.3333 3.55554ZM10.4611 11.1833L8.13328 11.7L8.68884 9.39443L13.9944 4.07776L15.7888 5.8722L10.4611 11.1833ZM16.3888 5.23887L14.5944 3.44443L15.6222 2.41665L17.4166 4.21109L16.3888 5.23887Z" fill="#53E88B"/>
</g>
<defs>
<clipPath id="clip0_117_1128">
<rect width="20" height="20" fill="white"/>
</clipPath>
</defs>
</svg>
