<svg width="50" height="50" viewBox="0 0 50 50" fill="none" xmlns="http://www.w3.org/2000/svg">
<g clip-path="url(#clip0_101_3910)">
<path d="M7.42186 20.7031C6.61288 20.7031 5.95702 20.0473 5.95702 19.2383V16.3086C5.95702 15.4996 6.61288 14.8437 7.42186 14.8437C8.23085 14.8437 8.88671 15.4996 8.88671 16.3086V19.2383C8.88671 20.0473 8.23085 20.7031 7.42186 20.7031Z" fill="#66334D"/>
<path d="M35.2539 16.3086V19.2383C35.2539 20.0469 34.5977 20.7031 33.7891 20.7031H16.211C15.4024 20.7031 14.7461 20.0469 14.7461 19.2383V16.3086C14.7461 13.8857 16.7178 11.9141 19.1407 11.9141H30.8594C33.2823 11.9141 35.2539 13.8857 35.2539 16.3086Z" fill="#66334D"/>
<path d="M35.2539 16.3086V19.2383C35.2539 20.0469 34.5976 20.7031 33.789 20.7031H25V11.9141H30.8593C33.2822 11.9141 35.2539 13.8857 35.2539 16.3086Z" fill="#66334D"/>
<path d="M35.2539 16.3086V19.2383C35.2539 20.0469 34.5977 20.7031 33.7891 20.7031H25V11.9141H30.8594C33.2822 11.9141 35.2539 13.8857 35.2539 16.3086Z" fill="#4D2739"/>
<path d="M50 22.168V33.8867L25 36.2305L0 33.8867V22.168C0 19.7451 1.97168 17.7734 4.39453 17.7734H45.6055C48.0283 17.7734 50 19.7451 50 22.168Z" fill="#8C466A"/>
<path d="M50 22.168V33.8867L25 36.2305V17.7734H45.6055C48.0283 17.7734 50 19.7451 50 22.168Z" fill="#66334D"/>
<path d="M50 33.8867V45.6055C50 48.0283 48.0283 50 45.6055 50H4.39453C1.97168 50 0 48.0283 0 45.6055V33.8867H50Z" fill="#FF8FB8"/>
<path d="M50 33.8867V45.6055C50 48.0283 48.0283 50 45.6055 50H25V33.8867H50Z" fill="#FF5F96"/>
<path d="M25 23.6328C19.3457 23.6328 14.7461 28.2324 14.7461 33.8867C14.7461 39.5303 19.3369 44.1406 25 44.1406C30.666 44.1406 35.2539 39.5283 35.2539 33.8867C35.2539 28.2324 30.6543 23.6328 25 23.6328Z" fill="#FFF2FB"/>
<path d="M35.2539 33.8867C35.2539 39.5283 30.666 44.1406 25 44.1406V23.6328C30.6543 23.6328 35.2539 28.2324 35.2539 33.8867Z" fill="#FFDFEA"/>
<path d="M25 29.4922C22.5771 29.4922 20.6054 31.4639 20.6054 33.8867C20.6054 36.3037 22.5713 38.2812 25 38.2812C27.4267 38.2812 29.3945 36.3057 29.3945 33.8867C29.3945 31.4639 27.4228 29.4922 25 29.4922Z" fill="#FFDFEA"/>
<path d="M29.3945 33.8867C29.3945 36.3057 27.4267 38.2812 25 38.2812V29.4922C27.4228 29.4922 29.3945 31.4639 29.3945 33.8867Z" fill="#FFBFBF"/>
<path d="M7.42186 26.5625C8.23087 26.5625 8.88671 25.9067 8.88671 25.0977C8.88671 24.2886 8.23087 23.6328 7.42186 23.6328C6.61285 23.6328 5.95702 24.2886 5.95702 25.0977C5.95702 25.9067 6.61285 26.5625 7.42186 26.5625Z" fill="#97DE3D"/>
<path d="M42.5781 26.5625H39.6484C38.8394 26.5625 38.1836 25.9066 38.1836 25.0977C38.1836 24.2887 38.8394 23.6328 39.6484 23.6328H42.5781C43.3871 23.6328 44.043 24.2887 44.043 25.0977C44.043 25.9066 43.3871 26.5625 42.5781 26.5625Z" fill="#59C36A"/>
<path d="M26.4648 1.46484V4.39453C26.4648 5.20312 25.8086 5.85937 25 5.85937C24.1914 5.85937 23.5351 5.20312 23.5351 4.39453V1.46484C23.5351 0.65625 24.1914 0 25 0C25.8086 0 26.4648 0.65625 26.4648 1.46484Z" fill="#FFE580"/>
<path d="M26.4648 1.46484V4.39452C26.4648 5.20312 25.8086 5.85937 25 5.85937V-7.6566e-06C25.8086 -7.6566e-06 26.4648 0.656242 26.4648 1.46484Z" fill="#FFCC66"/>
<path d="M28.7878 7.93095C28.2157 7.35888 28.2157 6.43144 28.7878 5.85937L30.8594 3.78779C31.4313 3.21572 32.3589 3.21572 32.931 3.78779C33.503 4.35986 33.503 5.2873 32.931 5.85937L30.8594 7.93095C30.2874 8.50302 29.3599 8.50302 28.7878 7.93095Z" fill="#FFCC66"/>
<path d="M19.1406 7.93096L17.069 5.85938C16.4971 5.28731 16.4971 4.35987 17.069 3.7878C17.641 3.21573 18.5685 3.21573 19.1406 3.7878L21.2122 5.85938C21.7842 6.43145 21.7842 7.35889 21.2122 7.93096C20.6402 8.50293 19.7128 8.50313 19.1406 7.93096Z" fill="#FFE580"/>
</g>
<defs>
<clipPath id="clip0_101_3910">
<rect width="49.8223" height="49.8223" fill="white" transform="scale(1.00357)"/>
</clipPath>
</defs>
</svg>
