<svg width="17" height="17" viewBox="0 0 17 17" fill="none" xmlns="http://www.w3.org/2000/svg">
<path d="M16.559 2.38243L14.4463 0.26973C14.2647 0.0965892 14.0234 0 13.7725 0C13.5216 0 13.2804 0.0965892 13.0988 0.26973L11.2202 2.15403H1.142C0.839124 2.15403 0.548651 2.27435 0.334484 2.48852C0.120318 2.70268 0 2.99316 0 3.29603V15.858C0 16.1609 0.120318 16.4514 0.334484 16.6656C0.548651 16.8797 0.839124 17.0001 1.142 17.0001H13.704C14.0069 17.0001 14.2974 16.8797 14.5115 16.6656C14.7257 16.4514 14.846 16.1609 14.846 15.858V5.443L16.559 3.72999C16.7375 3.55121 16.8378 3.30887 16.8378 3.05621C16.8378 2.80355 16.7375 2.56122 16.559 2.38243ZM8.46794 10.2223L6.07545 10.7533L6.64645 8.38365L12.0995 2.91917L13.9438 4.76351L8.46794 10.2223ZM14.5605 4.11256L12.7162 2.26823L13.7725 1.21188L15.6169 3.05621L14.5605 4.11256Z" fill="#53E88B"/>
</svg>
