<svg width="46" height="43" viewBox="0 0 46 43" fill="none" xmlns="http://www.w3.org/2000/svg">
<g clip-path="url(#clip0_101_6603)">
<path d="M21.3125 4C17.6465 4 14.2819 5.31787 11.6458 7.51467V31.7978C14.2819 33.9946 17.6465 35.3125 21.3125 35.3125C29.7694 35.3125 36.625 28.303 36.625 19.6563C36.625 11.0095 29.7694 4 21.3125 4Z" fill="#FF4155"/>
<path d="M22 4C13.1613 4 6 11.1613 6 20C6 28.8387 13.1613 36 22 36C30.8387 36 38 28.8387 38 20C38 11.1613 30.8387 4 22 4Z" fill="#FF4155"/>
<circle cx="35" cy="5" r="1" fill="#FF4155"/>
<path d="M15.375 18H28.625C28.8313 18 29 18.1687 29 18.375V26.5C29 27.3281 28.3281 28 27.5 28H16.5C15.6719 28 15 27.3281 15 26.5V18.375C15 18.1687 15.1688 18 15.375 18ZM29 16.625V15.5C29 14.6719 28.3281 14 27.5 14H26V12.375C26 12.1688 25.8313 12 25.625 12H24.375C24.1687 12 24 12.1688 24 12.375V14H20V12.375C20 12.1688 19.8313 12 19.625 12H18.375C18.1688 12 18 12.1688 18 12.375V14H16.5C15.6719 14 15 14.6719 15 15.5V16.625C15 16.8313 15.1688 17 15.375 17H28.625C28.8313 17 29 16.8313 29 16.625Z" fill="#FFCC00"/>
<path d="M21.0568 25.8822L18.1318 23.2672C17.9561 23.1101 17.9561 22.8554 18.1318 22.6983L18.7682 22.1293C18.9439 21.9722 19.2288 21.9722 19.4046 22.1293L21.375 23.8909L25.5954 20.1178C25.7712 19.9607 26.0561 19.9607 26.2318 20.1178L26.8682 20.6868C27.0439 20.8439 27.0439 21.0986 26.8682 21.2557L21.6932 25.8822C21.5175 26.0393 21.2325 26.0393 21.0568 25.8822Z" fill="#53E88B"/>
</g>
<circle cx="3" cy="3" r="3" fill="#FF4155"/>
<circle cx="4" cy="34" r="2" fill="#FF4155"/>
<circle cx="26.5" cy="42.5" r="0.5" fill="#FF4155"/>
<circle cx="43.5" cy="21.5" r="2.5" fill="#FF4155"/>
<defs>
<clipPath id="clip0_101_6603">
<rect width="32" height="32" fill="white" transform="translate(6 4)"/>
</clipPath>
</defs>
</svg>
