<svg width="42" height="50" viewBox="0 0 42 50" fill="none" xmlns="http://www.w3.org/2000/svg">
<ellipse cx="20.8552" cy="24.7762" rx="19.1172" ry="22.7116" fill="#DDECFF"/>
<path fill-rule="evenodd" clip-rule="evenodd" d="M0 24.9484C0 11.1694 9.4017 0 21 0C32.5983 0 42 11.1694 42 24.9484C42 38.7274 32.5983 49.8968 21 49.8968C9.4017 49.8968 0 38.7274 0 24.9484ZM21 4.98968C16.5444 4.98968 12.2712 7.09246 9.1206 10.8354C5.96999 14.5784 4.2 19.655 4.2 24.9484C4.2 30.2418 5.96999 35.3183 9.1206 39.0613C12.2712 42.8043 16.5444 44.9071 21 44.9071C25.4556 44.9071 29.7288 42.8043 32.8794 39.0613C36.03 35.3183 37.8 30.2418 37.8 24.9484C37.8 19.655 36.03 14.5784 32.8794 10.8354C29.7288 7.09246 25.4556 4.98968 21 4.98968Z" fill="#DDEBFF"/>
<path d="M10.4276 24.7762H31.2827" stroke="white" stroke-width="2.5" stroke-linecap="round"/>
</svg>
