<svg width="60" height="116" viewBox="0 0 60 116" fill="none" xmlns="http://www.w3.org/2000/svg">
<path fill-rule="evenodd" clip-rule="evenodd" d="M2.93487 100.136C1.31399 100.136 0 101.45 0 103.071V110.043C0 111.664 1.31399 112.978 2.93487 112.978H4.6286V114.166C4.6286 115.179 5.44985 116 6.4629 116H16.6802C17.6933 116 18.5145 115.179 18.5145 114.166V112.978H20.8288V114.166C20.8288 115.179 21.65 116 22.6631 116H32.8804C33.8935 116 34.7147 115.179 34.7147 114.166V112.978H40.1148V114.166C40.1148 115.179 40.936 116 41.9491 116H52.1664C53.1795 116 54.0007 115.179 54.0007 114.166V112.978H56.466C58.0869 112.978 59.4009 111.664 59.4009 110.043V103.071C59.4009 101.45 58.0869 100.136 56.466 100.136H2.93487Z" fill="#0066EE"/>
<rect y="84.2712" width="59.4009" height="11.3317" rx="2.92435" fill="#0066EE"/>
<rect y="22.7331" width="59.4062" height="12.3998" rx="2.92435" fill="#D9D9D9"/>
<rect y="53.2981" width="59.4009" height="11.3317" rx="2.92435" fill="#0066EE"/>
<rect y="68.4071" width="59.4009" height="11.3317" rx="2.92435" fill="#0066EE"/>
<rect y="37.4336" width="59.4009" height="11.3317" rx="2.92435" fill="#0066EE"/>
<rect x="15.6561" width="29.5726" height="18.5997" rx="2.55881" fill="#D9D9D9"/>
</svg>
