<svg width="57" height="58" viewBox="0 0 57 58" fill="none" xmlns="http://www.w3.org/2000/svg">
<g clip-path="url(#clip0_101_11650)">
<path d="M30 53C41.0457 53 50 44.0457 50 33C50 21.9543 41.0457 13 30 13C18.9543 13 10 21.9543 10 33C10 44.0457 18.9543 53 30 53Z" fill="#32BA7C"/>
<path d="M24.8898 42.0221L35.1737 52.306C43.691 50.0347 50.0002 42.2744 50.0002 33C50.0002 32.8107 50.0002 32.6214 50.0002 32.4322L41.9245 24.9874L24.8898 42.0221Z" fill="#0AA06E"/>
<path d="M30.5046 37.4795C31.3879 38.3628 31.3879 39.877 30.5046 40.7603L28.675 42.5899C27.7917 43.4732 26.2775 43.4732 25.3942 42.5899L17.3816 34.5142C16.4983 33.6309 16.4983 32.1167 17.3816 31.2334L19.2112 29.4038C20.0945 28.5205 21.6087 28.5205 22.492 29.4038L30.5046 37.4795Z" fill="white"/>
<path d="M37.5077 23.5363C38.391 22.653 39.9051 22.653 40.7884 23.5363L42.6181 25.366C43.5014 26.2492 43.5014 27.7634 42.6181 28.6467L28.738 42.4637C27.8547 43.347 26.3405 43.347 25.4572 42.4637L23.6275 40.6341C22.7443 39.7508 22.7443 38.2366 23.6275 37.3533L37.5077 23.5363Z" fill="white"/>
</g>
<circle cx="55" cy="5" r="2" fill="#32BA7C"/>
<circle cx="4" cy="1" r="1" fill="#32BA7C"/>
<circle cx="54" cy="57" r="1" fill="#32BA7C"/>
<circle cx="4.5" cy="52.5" r="4.5" fill="#32BA7C"/>
<defs>
<clipPath id="clip0_101_11650">
<rect width="40" height="40" fill="white" transform="translate(10 13)"/>
</clipPath>
</defs>
</svg>
