<svg width="42" height="50" viewBox="0 0 42 50" fill="none" xmlns="http://www.w3.org/2000/svg">
<path fill-rule="evenodd" clip-rule="evenodd" d="M0 24.9484C0 11.1694 9.4017 0 21 0C32.5983 0 42 11.1694 42 24.9484C42 38.7274 32.5983 49.8968 21 49.8968C9.4017 49.8968 0 38.7274 0 24.9484ZM21 4.98968C16.5444 4.98968 12.2712 7.09247 9.12061 10.8355C5.97 14.5784 4.2 19.655 4.2 24.9484C4.2 30.2418 5.97 35.3184 9.12061 39.0613C12.2712 42.8043 16.5444 44.9071 21 44.9071C25.4556 44.9071 29.7288 42.8043 32.8794 39.0613C36.03 35.3184 37.8 30.2418 37.8 24.9484C37.8 19.655 36.03 14.5784 32.8794 10.8355C29.7288 7.09247 25.4556 4.98968 21 4.98968Z" fill="#0066EE"/>
<path fill-rule="evenodd" clip-rule="evenodd" d="M23.1 12.4742C23.1 11.8125 22.8788 11.1779 22.485 10.7101C22.0911 10.2422 21.557 9.97934 21 9.97934C20.4431 9.97934 19.9089 10.2422 19.5151 10.7101C19.1213 11.1779 18.9 11.8125 18.9 12.4742V22.4535H10.5C9.94308 22.4535 9.40893 22.7164 9.01511 23.1843C8.62128 23.6521 8.40003 24.2867 8.40003 24.9484C8.40003 25.6101 8.62128 26.2446 9.01511 26.7125C9.40893 27.1804 9.94308 27.4432 10.5 27.4432H18.9V37.4226C18.9 38.0843 19.1213 38.7188 19.5151 39.1867C19.9089 39.6546 20.4431 39.9174 21 39.9174C21.557 39.9174 22.0911 39.6546 22.485 39.1867C22.8788 38.7188 23.1 38.0843 23.1 37.4226V27.4432H31.5C32.057 27.4432 32.5911 27.1804 32.985 26.7125C33.3788 26.2446 33.6 25.6101 33.6 24.9484C33.6 24.2867 33.3788 23.6521 32.985 23.1843C32.5911 22.7164 32.057 22.4535 31.5 22.4535H23.1V12.4742Z" fill="white"/>
</svg>
